<svg version="1" xmlns="http://www.w3.org/2000/svg" width="533.333" height="533.333" viewBox="0 0 400.000000 400.000000"><path d="M341.7 2.1c-14.2 3.3-26.9 14.8-32.2 29.2-1.5 3.8-2 4.4-2.9 3.2-1.5-2-20.7-12.5-22.8-12.5-1 0-1.8-.5-1.8-1.1 0-.5-.4-.7-1-.4-.5.3-1 .2-1-.3 0-1.2-11.7-5.6-14.2-5.5-1 .1-1.6-.2-1.4-.6.6-.9-20.7-7.1-25.6-7.4-1.8-.1-3.7-.5-4.3-.9-.9-.6-5.3-1.2-16.5-2.3-8.9-1-37-.6-39 .5-1.1.6-2.5.8-3 .5-1.3-.8-8.1.5-7.5 1.4.2.4-.8.6-2.4.3-3-.4-19.8 3.3-21.7 4.9-.6.5-2.5 1.1-4 1.4-6.3.8-21.7 7.2-20.9 8.5.3.5-.1.7-.9.4-1.4-.5-11.4 4.1-12.7 5.9-.3.5-1 .8-1.4.6-1-.3-11.5 6.2-11.5 7.2 0 .5-.6.9-1.3.9-1.9 0-5.7 3.4-5.7 5.1 0 1.1-.2 1.1-.8.1-.6-.9-2.9.5-8.3 5C65.1 56 51.7 69.7 52.6 71.1c.4.7.3.9-.4.6C50.9 70.8 38 86.4 38 88.9c0 .6-.4 1.1-1 1.1-.5 0-1 .5-1 1 0 .6-.9 2.1-2 3.2-3.4 3.6-16.7 31.6-20.4 42.8-4.5 13.8-7.9 29.6-7.2 34 .4 2.6.3 3-.4 1.5-.8-1.7-.9-1.4-1 1.5-.1 4.8-.8 14.6-1.4 19.7-.8 6.3 1.1 29 3.4 41.6 2 10.6 3 14 8.1 29.7 3.3 9.9 13 29.5 20.8 41.9.7 1.1 2 1.2 7.3.2 3.6-.6 11.4-1.1 17.4-1.1 15.6 0 27.7 2.9 42 10.1 11 5.4 11.4 5.6 13 3.8 1-1.1 2.3-1.9 3.1-1.9 2.4 0 12.4-6.2 11.9-7.4-4.9-11.5-5.6-14-4.6-14.6.9-.5.3-2.7-1.9-7.6-4-8.9-4.5-9.7-6.1-10.2-.7-.3-1-.1-.7.4.3.5-.5.9-1.8.9s-2.1-.3-1.8-.8c.2-.4 0-.7-.6-.7-.5 0-1.7-.8-2.7-1.8-4.1-4.1-8.9-7.2-10.2-6.7-.9.3-1.2 0-.9-.9.4-.9-.2-1.7-1.4-2.1-1-.4-1.9-1-1.9-1.5 0-.4-1.8-1.5-4-2.4-3.4-1.3-4-2-4-4.5 0-6.6 7.5-9.7 18.7-7.9 4 .7 8.8.6 15.8-.3 11.8-1.5 16.6-1.4 19.6.1 1.7 1 2.4.9 3.1-.1.7-1.1.8-.9.4.4-.8 2.5.4 4.3 1.6 2.6.5-.9.6-.3.2 1.6-1 4.2-1 4.3-5.4 5.5-5 1.3-18.1 12.5-17.3 14.7.5 1.2.8 1.2 1.5.1.7-1 .8-.8.4.5-.6 2 6.2 17.9 7.4 17.2.8-.5 4.7 3.4 4.1 4.1-.6.8 2.1 6.4 3.1 6.4.5 0 .8.6.6 1.2-.2 1.1 4.9 14.8 8.7 23.3 5.5 12.1 7.5 16.9 7.5 17.6 0 .5 1.3 3.7 2.9 7.1 1.6 3.5 4.8 10.8 7.1 16.3s5.2 12.2 6.4 15c1.2 2.7 2.8 6.5 3.5 8.2.8 1.8 1.8 3.3 2.3 3.3.5 0 .6-.6.2-1.2-.6-1-.4-1 .7-.2 1.5 1.2 5.8 1.5 21.9 1.5 7.8 0 9.7-.3 10.7-1.7.7-1 1.3-1.4 1.3-1 0 .4 1.2-.6 2.6-2.3 1.4-1.7 2.2-3.6 1.8-4.2-.4-.7-.3-.9.3-.6.5.3 2-2 3.3-5.1 1.3-3.1 3.4-8.1 4.7-11 1.3-2.9 2.1-5.8 1.7-6.4-.4-.6-.3-.8.3-.5 1.3.8 4.7-7.8 3.9-9.9-.3-.8-.2-1.3.3-1 1.1.7 7.3-13.3 6.4-14.8-.3-.6-.2-.8.2-.4.5.5 3-4.3 5.7-10.5 7.4-16.9 8.8-20.7 8-20.7-.4 0-.1-.4.6-.9.8-.5 1.5-2 1.5-3.4.1-1.4.5-2.3.8-2.2.3.2 3.1-5.8 6.3-13.3 3.1-7.5 6.1-14.5 6.7-15.5 1.1-2 .1-7-1.2-6.1-.5.3-.6-.2-.3-1 .3-.9-.5-3.6-1.9-6-1.7-3.1-2-4.3-1-3.9 1 .4.9-.4-.6-2.8-3.1-5-2.7-7.5 1.2-9 3.3-1.2 3.3-1.2 2.6-5.8-.3-2.5-1-6.9-1.3-9.6-2.7-21.7-1.1-20.3-25-20.7l-18-.3-.8-3c-.4-1.8-.3-4.3.3-6.3l1.1-3.2h15.4c8.5 0 16.2.4 17.2.9 1.5.8 14.3 3 19.9 3.4 1.2.1 2 .4 1.8.5-.2.2.6 1.3 1.7 2.4 2 2 2.1 2.8 1.4 15.7-.3 7.5-1 15.1-1.5 16.9-.8 2.8-.7 3.2.8 3.2 2.2 0 4.6 5.1 3.8 7.9-.3 1.4-.1 1.8.9 1.4.8-.3 1.4.1 1.4.9s.8 3.1 1.8 5.2l1.8 3.7 5.3-5.1c2.9-2.9 4.9-5.5 4.5-6.2-.5-.7-.3-.8.5-.3 1.4.8 15.3-12.3 14.5-13.7-.3-.5 0-.7.8-.6.7.2 1.2-.3 1-1-.1-.8.2-1.1.6-.8 1.2.7 4.4-2.8 3.5-3.8-.5-.4-.1-.6.7-.4.8.2 1.4-.3 1.2-1-.1-.8.2-1.1.6-.8.5.3 1.7-.3 2.7-1.4 1-1.1 1.3-2 .7-2-.6 0-1.3.5-1.5 1-.3.6-.4.5-.3-.2.3-1.3 5.8-2 8.9-1.2 1.6.5 1.7 2.4 1.3 28.7-.4 30.1-.6 33.9-1.3 32-.4-1-.7-1-1.8 0-.7.7-1 1.6-.7 2.2.3.5.1.7-.3.2-.5-.4-1.7.1-2.8 1-1 1-2.1 1.7-2.3 1.5-.2-.1-5.6-.2-11.9-.2-8.5 0-11.5.3-11.5 1.2 0 1.2 9.5 23.6 10.4 24.5.2.2 4.1-.6 8.7-1.9 6.7-1.8 11-2.2 21.4-2.2 7.2.1 14.8.3 17.1.6l4.1.6 3.7-6.4c2-3.6 3.4-7 3-7.6-.4-.6-.3-.8.3-.5 1 .6 6-8.9 5.5-10.5-.1-.4.2-.8.7-.8 2.8 0 15.2-42.7 16-55 0-.8.5-6.7 1-13 .8-10.4-.1-38-1.4-40.1-.3-.4-.7-2.7-1-5-1.4-10.8-9.6-39-11.6-39.7-.5-.2-.7-.7-.4-1.2.7-1.2-12.7-27.1-15.7-30.3-3.3-3.5-2.8-4.9 2-6.6 14.7-5.2 26.2-19.6 28.6-35.9 2-14.3-2.4-27.3-12.8-37.8-11.2-11.2-27-15.8-41.9-12.3zm27.9 15c.3.6-1.5 3.2-4 5.8-4.4 4.5-4.6 4.9-3.8 8.6.7 3.5 1.2 4 4.7 4.7 3.7.8 4.1.6 8.6-3.8 2.6-2.5 5.2-4.3 5.8-4 1.5 1 1.4 7-.3 10.9-2.8 6.7-11.3 11.6-17.7 10.2-2.9-.7-3.8 0-16.8 12.9-15 14.9-16.9 15.8-21.6 11.1-4.7-4.7-3.8-6.6 11.1-21.6 12.9-13 13.6-13.9 12.9-16.8-1.3-6.2 3.5-14.8 10-17.7 3.7-1.6 10.1-1.8 11.1-.3zm-6.2 77.5c.3.8.2 1.2-.4.9-.6-.3-1-1-1-1.6 0-1.4.7-1.1 1.4.7zM254 105.5c.7.9 1.4 3.2 1.5 5.3.4 6.6.3 6.4 2.8 5 2.5-1.4 12.8-1.8 11.9-.4-.3.5.2.6 1.2.3.9-.4 1.5-.3 1.2.2-.3.4.7 2 2.3 3.4 2.8 2.4 2.9 2.8 2.5 10.9-.3 9.4-.6 11.9-1.3 11.3-.2-.3-1.7.7-3.3 2-1.6 1.4-4 2.8-5.4 3.1-3.2.8-9-.3-10.8-2.1-1.2-1.2-1.5-1.2-1.9 0-.3.7-.1 1.6.6 1.8.7.3-.8.3-3.2.2-2.4-.2-4.8-1-5.2-1.7-1.4-2.2-1.1-38.2.3-39.6 1.7-1.7 5.3-1.5 6.8.3zm36.4.1c1.9 1.9 2 3.5.4 5.6-1.6 1.9-6.6 2.9-9.3 1.8-1.1-.5-1.5-.9-.9-.9.6-.1.9-1.2.6-2.6-.2-1.4.1-3.2.8-4 1.6-2 6.4-1.9 8.4.1zm45.1 2c-.2 3.9-1.1 5.4-3.6 5.4-2.6 0-2.4 1.3.4 2.5 2.1 1 2.2 1.6 2.5 15.1l.3 14-2.5 1.4c-2.2 1.1-2.9 1.1-5.1-.4-2.4-1.6-2.5-2-2.6-13.4-.2-14.6-.2-14.4 2.2-16.4 1.9-1.6 2.7-3.4 1-2.4-.5.3-1.6-.9-2.4-2.6-1.4-3-1.4-3.4 0-5.1 1.2-1.2 2.8-1.7 5.8-1.5 3.8.3 4.1.5 4 3.4zm-241.7.5c4.4 2.2 6.2 4.9 6.2 9.4 0 1.3.5 2.6 1 2.8.6.3.5.4-.2.3-.7-.1-1.8.8-2.5 2.2-1 1.9-1 2.6.1 3.8 1.2 1.1 1.6 1 3-1.1.8-1.3 1.7-3 1.8-3.7.2-.7.6-1.5.9-1.8.4-.3 2-3.3 3.7-6.6 3.3-6.6 4.4-7.4 9.8-7.4 4.4 0 6.3 2 10.4 10.8 1.8 4 3.7 6.9 4.3 6.5.6-.3.7-.1.4.4-.7 1.2 5 12.9 6.1 12.6 1.4-.3 0 8.9-1.4 9.4-.8.3-1.2.8-.9 1.3.2.4-1.8.3-4.4-.3-3.5-.6-5.1-1.5-5.4-2.8-.5-1.7-1.5-1.9-9.2-1.9-8 0-9 .2-11 2.4-1.3 1.4-2.1 2.7-1.9 2.9.8.8-6.2-.6-7.3-1.5-.7-.6-2.6-.5-5 .1-2.1.6-8.3 1.1-13.8 1.1-15.1 0-14.5.8-14.5-20.3 0-9.5.4-17.7.8-18.3 1.2-1.9 3.4-2.2 14.1-2.3 8.7-.1 11.2.3 14.9 2zm54.5-.6c-.3.9-.8 1.4-1 1.1-.3-.3-.2-.9.2-1.5.9-1.6 1.5-1.3.8.4zm30.5-.3c.7.7 1.2 2.1 1.2 3.3 0 3.8-1.9 4.5-11.7 4.5H159v6.1l7-.2c7.6-.2 12 1.6 12 5.1 0 3.1-3.3 4.7-9.7 4.4-7.9-.4-9.3.1-9.3 3.7v2.9h9.4c5.9 0 9.7.4 10.2 1.1.4.8.9.7 1.5-.2.8-1.3.3 3.6-.7 6.8-.2 1-4 1.3-14.3 1.3-12.8 0-14.1-.2-15.1-1.9-.6-1.1-1-8.9-1-18.1 0-9.2.4-17 1-18.1 1-1.7 2.2-1.9 14.3-1.9 9 0 13.7.4 14.5 1.2zm194.7 1.8c.3.5.1 1-.4 1-.6 0-1.1-.5-1.1-1 0-.6.2-1 .4-1 .3 0 .8.4 1.1 1zm-50.2 3.5c-.3.9-.8 1.4-1 1.1-.3-.3-.2-.9.2-1.5.9-1.6 1.5-1.3.8.4zm-53.3-.1c0 .2-.7.7-1.6 1-.8.3-1.2.2-.9-.4.6-1 2.5-1.4 2.5-.6zm-82 1c0 .2-.7.7-1.6 1-.8.3-1.2.2-.9-.4.6-1 2.5-1.4 2.5-.6zm4 .1c0 .2-1 1-2.2 1.6-2.1 1.1-2.2 1.1-.9-.4 1.3-1.6 3.1-2.3 3.1-1.2zm13.3 2.7c.9.5 2.2.6 2.7.3.6-.4.9-.3.8.2-.1.4.2 1.8.6 3.1.4 1.4.3 2.8-.3 3.6-.6.7-.7 1.7-.3 2.1.4.5-.1.5-1 .2s-1.9-.1-2.2.6c-.3.9-.6.9-1.3 0-1.3-1.8-6-3.3-8-2.6-7.9 2.8-6.5 14.3 1.7 14.3 1.4 0 3.6-.9 4.8-2 1.2-1.2 2.2-1.6 2.2-1 0 .5.6 1 1.4 1 2.5 0 4 2.8 2.8 5.4-2.5 5.7-14.7 7.2-21.1 2.7-1.6-1.1-3.1-1.7-3.5-1.3-.4.4-.6.2-.5-.3.2-.6-.3-2.1-1.1-3.5-2.1-3.6-1.8-12.8.5-17 1.1-1.9 1.8-3.9 1.7-4.3-.1-.5.2-.6.8-.2.6.4 1.7.2 2.5-.5 3.5-2.9 12.1-3.3 16.8-.8zm29.4-.8c2.1.1 5.7 2.6 3.8 2.6-.5 0 .2 1.1 1.5 2.5 2 2.1 2.5 3.9 2.8 9.5l.4 6.8-4.5 4.5c-3.5 3.6-5.5 4.7-9 5.2-5.9.9-10-.1-13.8-3.2-4.3-3.6-5.9-7.4-5.9-13.8 0-5.1.3-5.8 4-9.5 4.6-4.6 8.9-6.1 14.5-5.3 2.2.3 5 .6 6.2.7zm84.1 1.3c2.4 1.2 3.2 2.2 3.2 4.2 0 5.1-3.2 6.3-8.9 3.5-3.1-1.6-3.4-1.5-5.9.3-5.5 4.1-3.1 13.3 3.4 13.3 1.4 0 2.3-.3 2.1-.8-.3-.4 1.4-.8 3.7-1 3.2-.2 4.7.2 6.1 1.8 1 1.1 1.3 2 .7 2-.7 0-1.2.6-1.2 1.3 0 .7-1.8 2.4-4.1 3.6-3.4 1.9-5 2.2-9.2 1.7-5.8-.6-9.1-2.7-12.5-7.7-3.3-4.6-2.6-13.3 1.3-18.4 2.5-3.3 2.3-4.9-.3-2.3-.8.8-1.2.8-1.2.1 0-1.2 2.8-2.5 3.9-1.9.4.3 2.5-.2 4.7-.9 4.3-1.6 9.1-1.2 14.2 1.2zm-29-.5c.8.8 1.2 5.6 1.2 15V145l-2.6 1c-2.9 1.1-5.8 0-6.8-2.6s-.7-24.4.4-26.5c1.2-2.2 5.9-2.6 7.8-.7zm-12.8.8c0 .5-.2 1-.4 1-.3 0-.8-.5-1.1-1-.3-.6-.1-1 .4-1 .6 0 1.1.4 1.1 1zm-141.3 7.2c-.3.8-.6.5-.6-.6-.1-1.1.2-1.7.5-1.3.3.3.4 1.2.1 1.9zm-122 23c-.3.8-.6.5-.6-.6-.1-1.1.2-1.7.5-1.3.3.3.4 1.2.1 1.9zm372 1c-.3.8-.6.5-.6-.6-.1-1.1.2-1.7.5-1.3.3.3.4 1.2.1 1.9zM277 195c.8.5 1.1 1 .5 1-.5 0-1.7-.5-2.5-1s-1-1-.5-1c.6 0 1.7.5 2.5 1zm44.6 23c0 1.2-.4 1.6-.9 1.1s-.6-1.4-.3-2c1-1.5 1.2-1.4 1.2.9zM307 238.4c0 .2-.7.7-1.6 1-.8.3-1.2.2-.9-.4.6-1 2.5-1.4 2.5-.6zm-37.8 29.8c-.7.7-1.2.8-1.2.2 0-1.4 1.2-2.6 1.9-1.9.2.3-.1 1.1-.7 1.7zm-135.2-.8c0 .3-.4.8-1 1.1-.5.3-1 .1-1-.4 0-.6.5-1.1 1-1.1.6 0 1 .2 1 .4zm-12 29.1c0 .8-.4 1.5-1 1.5-.5 0-.7-.7-.4-1.5.4-.8.8-1.5 1-1.5.2 0 .4.7.4 1.5zm127.7 9.7c-.3.8-.6.5-.6-.6-.1-1.1.2-1.7.5-1.3.3.3.4 1.2.1 1.9zm67.8-.2c-.3.5-1.2 1-1.8 1-.7 0-.6-.4.3-1 1.9-1.2 2.3-1.2 1.5 0zm-82.2 42.5c-.3.9-.8 1.4-1 1.1-.3-.3-.2-.9.2-1.5.9-1.6 1.5-1.3.8.4z"/><path d="M327.4 67.5c-.4.9-.2 2.1.4 2.7 1.5 1.5 4.4.1 4-1.9-.4-2.3-3.6-2.9-4.4-.8zM258.1 124.9c-5 3.8-2.2 13.1 3.9 13.1 3.1 0 5.6-2.3 4.4-4.1-.4-.7-.3-.9.3-.6 1.7 1.1 2.3-2 1.1-5.3-.6-1.8-2.1-3.5-3.5-4.1-3.2-1.2-3.4-1.2-6.2 1zM235 116.4c0 .2.7.7 1.6 1 .8.3 1.2.2.9-.4-.6-1-2.5-1.4-2.5-.6zM221.9 125.1c-3.2 3.2-1.8 12.8 1.7 11.5.9-.3 1.2-.1.9.4-.4.6.6 1 2.3 1 3.5 0 6.2-3.4 6.2-7.8 0-5.6-7.3-8.9-11.1-5.1zm7.6.9c.3.6-.1.7-.9.4-1.8-.7-2.1-1.4-.7-1.4.6 0 1.3.4 1.6 1zm-7.4 2.3c-1 .9-1.1.8-.5-.6.3-1 .9-1.5 1.2-1.2.3.3 0 1.1-.7 1.8zM327.9 225.1c-.1.8-.1 1.7 0 2.1 0 .5-.2.7-.6.6-.5 0-1.6.2-2.6.7-1.5.6-1.5 1-.5 2.3 1.1 1.3 1.1 1.4 0 .8-1.7-1-6.5 2.1-5.6 3.6.4.6.3.8-.3.5-.5-.3-6 4.5-12.3 10.8-11.2 11.3-11.3 11.5-10 14.2.7 1.6 1.4 3 1.5 3.3.7 3 1.8 4.9 2.6 4.5.5-.3.6.1.3.9s-.1 2.2.4 3.2c.8 1.4 2.6 1.6 12.6 1.5 12.9-.2 14.1-.5 15.1-2.9.8-2 .8-46.2 0-47-.3-.3-.6.1-.6.9zm-16.4 19.8c.3.5.2 1.2-.3 1.5-.5.3-.9-.1-.9-.9 0-1.7.3-1.9 1.2-.6zM290.3 298.5c-3.5 1.6-5.3 2-5.3 1.2 0-.7-.5-.4-1.1.6-.5.9-.7 2.3-.3 3 .4.6.3.9-.1.5-.9-.9-14.6 30.2-13.8 31.4.2.5 0 .8-.6.8s-1.6 1.9-2.2 4.2c-.7 2.4-1.8 5-2.4 5.8-2 2.6-4.6 10.1-3.9 11.3.4.7.4.9-.1.5-1.1-1-4.7 7.1-4 8.9.2.8.1 1.2-.4.9-.4-.3-1.5 1.1-2.4 3.2-.8 2-2.9 7-4.6 11.1-1.8 4-3 7.5-2.8 7.7.2.2 2.3-.2 4.7-.9l4.4-1.2 1.7-9.4c1-5.2 1.5-9.9 1.2-10.5-.3-.6-.2-.8.2-.4.5.5 2.3-3 4-7.6 1.7-4.7 3.9-9.6 4.8-11 .9-1.4 1.4-3.3 1.1-4.3-.4-1.3-.3-1.4.3-.5.7 1 2.4-.7 6.2-6.2 2.8-4.1 5.6-7.8 6.1-8.1.6-.4.7-1.2.4-1.8-.4-.7-.4-.9.1-.5.4.4 3.3-1.5 6.3-4.3 3.1-2.8 8-6.3 10.9-7.7 3.3-1.6 4.9-3 4.4-3.6-.4-.6-1.6-3.2-2.6-5.8-1-2.6-2.1-4.5-2.5-4.3-.4.3-.8-.1-.7-.8.1-2.8-.3-4.7-1-4.6-.5 0-3.2 1.1-6 2.4zm7.8 10.2c-1.2 2-1.4 1.4-.5-1.2.4-.9.9-1.4 1.1-1.1.3.2 0 1.3-.6 2.3zM341.5 316c-.4.6-.4 4.9 0 9.6.8 9.4.9 9.4 6.5 2.4 1.9-2.3 3-5.2 3.4-8.3l.6-4.7h-5c-2.7 0-5.2.5-5.5 1zm5.2 2.6c-.3.3-1.2.4-1.9.1-.8-.3-.5-.6.6-.6 1.1-.1 1.7.2 1.3.5zM330.2 316.9c-1.1.6-1 3.2.4 13.9 1.4 10.6 2 12.9 3.1 12.1.7-.6 1-1.6.6-2.2-.3-.5-.1-.7.5-.3.6.3 1.8-.4 2.6-1.6 1.2-1.7 1.6-4.8 1.6-12.5V316h-3.7c-2.1 0-4.4.4-5.1.9zm5.5.7c-.3.3-1.2.4-1.9.1-.8-.3-.5-.6.6-.6 1.1-.1 1.7.2 1.3.5zM354 317.5c0 .8.3 1.5.6 1.5s1.2-.7 2-1.5c1.4-1.3 1.3-1.5-.5-1.5-1.2 0-2.1.6-2.1 1.5zM321.2 319l-2.3 1 2.3 4.2c1.2 2.4 2.3 4.7 2.4 5.3.6 2.3 4.2 11.3 5.3 13.1 1 1.6 1.1 1.4.6-1.6-.5-3.5-2.5-20.9-2.5-22.3 0-.9-2.9-.8-5.8.3zM129.5 325.2c-3.3 1.7-6.1 3.2-6.3 3.3-.6.5 4.5 5.5 5.7 5.5.6 0 1.1.6 1.1 1.3 0 .7.7 2.3 1.6 3.6 1.3 1.8 1.9 2 2.6 1 .7-1.1.8-.9.4.4-.4 1.1.5 3.5 2.3 6 7.1 10.5 15.1 29 16.7 38.7.3 1.9 1.1 4 1.7 4.7 1.2 1.1 9.7 2.9 9.7 2 0-1.7-3.8-8.6-4.4-8-.4.4-.4 0 0-1 .3-1-.1-2.9-1.2-4.5-1-1.5-1.9-3.4-2-4.2-.1-1.3-15.6-38.2-20.2-48.2l-1.7-3.6-6 3zm12.3 21.8c-.7 1-1.4 1.7-1.7 1.5-.4-.4 1.8-3.5 2.5-3.5.2 0-.1.9-.8 2zm6.2 10.5c0 .5-.5.3-1-.5s-1-2-1-2.5c0-.6.5-.3 1 .5s1 1.9 1 2.5z"/></svg>