<svg version="1" xmlns="http://www.w3.org/2000/svg" width="533.333" height="533.333" viewBox="0 0 400.000000 400.000000"><path d="M184.9 2.5c-.3.2-3.4.6-6.9.9-19.1 1.4-46 9.4-66.5 19.8-9.7 4.9-28 16.1-30 18.4-.5.6-2.8 2.4-5 4-5.4 3.9-23.1 21.4-29.2 28.9C29.6 96.2 13.5 128.6 8.5 153c-.2.8-.8 3.6-1.4 6.3-1.2 5.1-1.6 7.6-3 17.7-.9 6.6-.7 41.5.2 46 .3 1.4.8 4.3 1.1 6.5 2.1 14.3 7.7 33.7 13.3 46.5 3.4 7.7 10.3 21.2 12.2 23.9 1.2 1.6 2.1 3.4 2.1 4 0 .6.5 1.1 1 1.1.6 0 1 .5 1 1.1 0 1.2 5.2 8.4 13.7 18.9 7.6 9.4 22.7 24.2 29.6 28.9 1.2.8 2.4 1.7 2.7 2.1 1.7 1.9 16.2 11.3 26.5 17 11.9 6.7 35.8 15.5 47.4 17.7 1.4.2 2.7.6 3.1.8.4.2 2.9.7 5.6 1.1 2.7.3 5.2.8 5.5 1 2.9 1.7 40.5 2.6 52.9 1.2 17.1-1.9 41-8.2 55-14.5 3-1.4 7.1-3.2 9-4.1 8.7-3.9 28.2-16 30.2-18.7.4-.5.8-.6.8-.1s.8-.1 1.9-1.2c1-1.2 2.1-2.2 2.5-2.2.3 0 1.9-1.1 3.4-2.4 1.5-1.4 3.8-3.4 5.2-4.6 4.9-4.2 13.6-12.9 17.5-17.5 2.2-2.6 4.5-5.3 5.2-6 2.1-2.2 13.8-18.9 16.5-23.5 2.6-4.7 11.2-21.1 11.4-22 .1-.5.6-1.9 3.1-8 4.2-10.2 7.2-21.1 10.4-38 3.9-20.1 3-59.9-1.7-75.2-.3-.9-.7-2.5-.9-3.5-.9-4.6-3.5-13.3-5.5-18.8-1.2-3.3-2.4-6.9-2.8-8-.3-1.1-1.2-3-1.9-4.2-.8-1.2-1.3-2.3-1.2-2.5.7-.9-14.2-28.4-16.1-29.8-.4-.3-1.3-1.6-2-3-2.7-5.1-17.7-22.8-25.4-29.9-2.1-2-4.8-4.5-6-5.6-5.1-5-29.2-22.5-31-22.5-.3 0-2.7-1.3-5.4-2.9-12.8-7.5-37.1-16.6-52.5-19.7-1-.2-2.6-.5-3.5-.8-.9-.3-3.7-.7-6.2-1-2.5-.3-5.6-.9-7-1.2-3-.7-39.5-1.5-40.1-.9z"/></svg>