<svg width="163" height="44" viewBox="0 0 163 44" fill="none" xmlns="http://www.w3.org/2000/svg">
<mask id="mask0" mask-type="alpha" maskUnits="userSpaceOnUse" x="0" y="34" width="7" height="10">
<path fill-rule="evenodd" clip-rule="evenodd" d="M0 34.508H6.13982V43.23H0V34.508Z" fill="white"/>
</mask>
<g mask="url(#mask0)">
<path fill-rule="evenodd" clip-rule="evenodd" d="M5.21085 37.9188V37.8933C5.21085 36.3579 4.22254 35.3764 3.0703 35.3764C1.94109 35.3764 0.870426 36.3959 0.870426 37.8808V37.9058C0.870426 39.4162 1.94109 40.4236 3.0703 40.4236C4.24635 40.4236 5.21085 39.4922 5.21085 37.9188V37.9188ZM0 35.074C0 34.797 0.200237 34.5832 0.446923 34.5832C0.705709 34.5832 0.905946 34.797 0.905946 35.074V35.9553C1.4001 35.1746 2.11752 34.508 3.23502 34.508C4.69289 34.508 6.13982 35.741 6.13982 37.8808V37.9058C6.13982 40.0331 4.70499 41.292 3.23502 41.292C2.10581 41.292 1.37629 40.6371 0.905946 39.9074V42.7393C0.905946 43.0166 0.717419 43.23 0.458633 43.23C0.200237 43.23 0 43.0166 0 42.7393V35.074Z" fill="#FEFEFE"/>
</g>
<path fill-rule="evenodd" clip-rule="evenodd" d="M12.7327 37.93V37.9041C12.7327 36.4878 11.6745 35.3265 10.2855 35.3265C8.85797 35.3265 7.87628 36.4878 7.87628 37.8787V37.9041C7.87628 39.3213 8.92141 40.4699 10.3108 40.4699C11.7388 40.4699 12.7327 39.3213 12.7327 37.93M6.86963 37.93V37.9041C6.86963 36.041 8.3225 34.4587 10.3108 34.4587C12.2865 34.4587 13.7394 36.0156 13.7394 37.8787V37.9041C13.7394 39.7677 12.2734 41.3504 10.2855 41.3504C8.30981 41.3504 6.86963 39.7931 6.86963 37.93" fill="#FEFEFE"/>
<path fill-rule="evenodd" clip-rule="evenodd" d="M14.9885 34.9441C14.9885 34.6953 15.2058 34.4823 15.4748 34.4823C15.7558 34.4823 15.9735 34.6835 15.9735 34.9441V36.0929C16.4594 35.0745 17.4184 34.4587 18.2498 34.4587C18.5434 34.4587 18.7357 34.6595 18.7357 34.9205C18.7357 35.1697 18.5566 35.3469 18.3007 35.3827C17.0221 35.5246 15.9735 36.4128 15.9735 38.1775V40.2617C15.9735 40.5105 15.7685 40.7239 15.4872 40.7239C15.2058 40.7239 14.9885 40.5227 14.9885 40.2617V34.9441Z" fill="#FEFEFE"/>
<path fill-rule="evenodd" clip-rule="evenodd" d="M63.7012 31.0262C63.6966 31.5474 63.2723 31.9597 62.7496 31.9525C62.2391 31.9449 61.8235 31.519 61.8277 31.0077C61.8326 30.488 62.2577 30.0693 62.7758 30.0731C63.2958 30.0791 63.7061 30.5001 63.7012 31.0262" fill="#FEFEFE"/>
<path fill-rule="evenodd" clip-rule="evenodd" d="M75.5672 31.0104C75.5691 31.5338 75.1512 31.9526 74.63 31.9526C74.1072 31.9526 73.6925 31.5338 73.6936 31.0092C73.697 30.4914 74.1084 30.0768 74.6235 30.0731C75.1459 30.0693 75.5653 30.488 75.5672 31.0104" fill="#FEFEFE"/>
<path fill-rule="evenodd" clip-rule="evenodd" d="M51.2107 39.701V41.3202C51.1591 41.3634 51.1026 41.3476 51.0498 41.3476C50.4718 41.3488 49.8937 41.3504 49.3157 41.3476C48.5195 41.3436 48.2222 41.0463 48.2201 40.252C48.2165 38.992 48.2181 37.7332 48.2181 36.4748C48.2181 36.2671 48.1994 36.0603 48.1539 35.8563C48.0199 35.2592 47.6547 34.9873 47.0393 35.0188C46.4483 35.0487 45.9909 35.3251 45.6456 35.7868C45.2308 36.3419 45.0574 36.985 45.0464 37.6649C45.0306 38.8183 45.0412 39.9745 45.0412 41.1295V41.3355H43.0393C42.9995 41.2672 43.0166 41.1949 43.0166 41.1266C43.0154 39.6311 43.0166 38.1384 43.0154 36.6445C43.0154 36.392 43.0056 36.1407 42.9622 35.8918C42.8541 35.2859 42.4816 34.9926 41.8634 35.0172C41.2577 35.0423 40.7934 35.3251 40.4449 35.8026C39.9907 36.4247 39.836 37.1402 39.8307 37.8924C39.8242 38.9698 39.8295 40.048 39.8295 41.1266V41.3343H37.8443C37.8021 41.2701 37.822 41.1965 37.822 41.1266C37.8208 39.2841 37.8208 37.4387 37.8208 35.5945C37.8208 35.5448 37.8212 35.4964 37.8208 35.4475C37.8143 35.1804 37.72 35.0843 37.4479 35.0778C37.2598 35.0738 37.0733 35.0754 36.8857 35.0726C36.8763 35.0726 36.8662 35.0637 36.8467 35.0544V33.3916C37.2334 33.3916 37.6116 33.3864 37.9898 33.3944C38.3363 33.3997 38.6836 33.3629 39.028 33.4207C39.5134 33.5051 39.758 33.7891 39.7645 34.2783C39.7657 34.4585 39.7645 34.6387 39.7645 34.8294C39.8307 34.8055 39.8409 34.7425 39.8677 34.6965C40.5468 33.5403 41.8715 32.9775 43.1783 33.2918C43.9265 33.472 44.4225 33.9374 44.7093 34.6375C44.7353 34.7017 44.7609 34.7676 44.7865 34.8294C44.8409 34.8189 44.847 34.774 44.8669 34.7437C45.5599 33.6469 46.5661 33.1549 47.8574 33.2155C48.1052 33.226 48.3493 33.2668 48.587 33.3403C49.4579 33.613 49.9197 34.2416 50.1261 35.0912C50.226 35.5028 50.2471 35.9234 50.2479 36.3443C50.2496 37.3151 50.2479 38.283 50.2479 39.2526C50.2496 39.5879 50.3389 39.6747 50.681 39.6772C50.8406 39.6784 51.0002 39.68 51.1591 39.6824C51.1737 39.6824 51.1895 39.6929 51.2107 39.701" fill="#FEFEFE"/>
<path fill-rule="evenodd" clip-rule="evenodd" d="M72.1977 38.3965C72.4922 38.8823 72.7795 39.3554 73.069 39.834C72.9124 40.021 72.7365 40.1676 72.5576 40.3091C70.826 41.6731 68.197 41.7024 66.5267 40.3657C65.5799 39.6087 65.0719 38.6001 64.9702 37.3989C64.852 35.9929 65.2533 34.756 66.2891 33.7704C67.0515 33.0482 67.9844 32.7035 69.0135 32.6054C69.8455 32.525 70.656 32.6262 71.4319 32.9501C71.6488 33.0397 71.8521 33.1575 72.0361 33.3041C72.4222 33.6144 72.6302 34.0114 72.6255 34.515C72.6222 34.8181 72.6243 35.1224 72.6243 35.4408H70.7923C70.7467 35.3413 70.7632 35.2291 70.7712 35.1254C70.7986 34.8041 70.6357 34.6158 70.3636 34.4985C69.9505 34.3187 69.5202 34.2978 69.0856 34.3795C67.9456 34.5941 67.1473 35.5211 67.0789 36.6887C67.0271 37.5494 67.219 38.3272 67.9034 38.8921C68.7574 39.5934 69.7273 39.6792 70.7476 39.3222C71.2391 39.1505 71.6665 38.8657 72.0568 38.521C72.0994 38.4823 72.1403 38.4462 72.1977 38.3965" fill="#FEFEFE"/>
<path fill-rule="evenodd" clip-rule="evenodd" d="M28.1033 39.5031V41.2882C27.9548 41.3485 27.7946 41.3405 27.6396 41.3473C27.1116 41.365 26.5905 41.3089 26.0848 41.1468C24.8799 40.7593 24.1728 39.8053 24.1494 38.479C24.128 37.2617 24.1425 36.0439 24.1413 34.8265V34.6066H23.1072V32.9532H24.1808V30.6996H26.1413V32.9464H27.971V34.5927H26.1849C26.128 34.6615 26.1494 34.7278 26.1494 34.7868C26.1477 35.8172 26.1477 36.8455 26.1465 37.8746C26.1465 38.0531 26.1558 38.2304 26.1925 38.4022C26.3306 39.048 26.8065 39.4495 27.4914 39.5086C27.692 39.525 27.8931 39.5124 28.1033 39.5031" fill="#FEFEFE"/>
<path fill-rule="evenodd" clip-rule="evenodd" d="M60.5786 34.9322V33.2365C60.6113 33.2014 60.6435 33.2084 60.6735 33.2084C61.2726 33.2084 61.8705 33.2014 62.4693 33.2097C63.0853 33.2179 63.3925 33.5433 63.3948 34.2096C63.4025 35.8622 63.3983 37.5148 63.3994 39.1658C63.3994 39.5523 63.4793 39.6371 63.8407 39.6383C64.0008 39.6395 64.1606 39.6383 64.3257 39.6383V41.3194C64.2777 41.3637 64.2232 41.3476 64.1737 41.3476C63.6218 41.3488 63.0703 41.3488 62.5192 41.3476C62.4416 41.3476 62.3629 41.3463 62.2857 41.338C61.8187 41.2922 61.5595 41.0123 61.5176 40.5093C61.5076 40.3811 61.5011 40.2521 61.5011 40.1244V35.4017C61.5011 35.0103 61.4289 34.9322 61.0621 34.9322C60.9062 34.9309 60.7522 34.9322 60.5786 34.9322" fill="#FEFEFE"/>
<path fill-rule="evenodd" clip-rule="evenodd" d="M73.0688 34.9331V33.2353C73.1146 33.1907 73.1688 33.2097 73.2187 33.2097C73.7768 33.208 74.3333 33.208 74.8901 33.2097C74.9213 33.2097 74.9528 33.2097 74.9831 33.2109C75.5746 33.2324 75.8809 33.5515 75.8848 34.1863C75.8925 35.8171 75.8886 37.4467 75.8886 39.0759C75.8901 39.5871 75.9374 39.6383 76.4197 39.6383H76.816V41.327C76.7545 41.3622 76.6961 41.3473 76.6407 41.3473C76.11 41.3485 75.5788 41.3485 75.0469 41.3473C74.2683 41.3461 73.9935 41.0563 73.9916 40.2141C73.9881 38.6398 73.9904 37.0673 73.9904 35.4939V35.3261C73.9851 35.0327 73.8955 34.9372 73.6192 34.9331C73.4428 34.9306 73.2664 34.9331 73.0688 34.9331" fill="#FEFEFE"/>
<path fill-rule="evenodd" clip-rule="evenodd" d="M79.0101 39.4709C79.5318 39.4732 79.9425 39.8939 79.9387 40.42C79.9338 40.9323 79.5132 41.3504 79.0033 41.3504C78.4884 41.3504 78.0629 40.9209 78.0652 40.4051C78.0678 39.8818 78.4876 39.4671 79.0101 39.4709" fill="#FEFEFE"/>
<path fill-rule="evenodd" clip-rule="evenodd" d="M58.1205 38.6159C57.7256 39.3066 57.1229 39.6829 56.2919 39.6671C55.4815 39.6526 54.9061 39.2605 54.5697 38.5726C54.1222 37.6604 54.1285 36.7236 54.5554 35.8093C54.8889 35.096 55.5038 34.7314 56.315 34.7144C57.1242 34.6958 57.7214 35.058 58.1062 35.7354C58.3657 36.1933 58.454 36.692 58.454 37.2065C58.454 37.7012 58.369 38.179 58.1205 38.6159M60.4222 35.9063C60.0201 34.1631 58.7673 33.1022 57.088 33.0169C56.0206 32.9615 55.0832 33.242 54.3666 34.0483C54.3502 34.0682 54.3388 34.0973 54.2968 34.0908C54.2955 34.0774 54.29 34.0629 54.29 34.0483C54.3439 33.0197 54.3203 31.9903 54.3064 30.9617C54.2997 30.4549 54.0209 30.1788 53.5032 30.0972C53.4014 30.0798 53.2975 30.0745 53.1962 30.0745C52.7003 30.0721 52.2049 30.0733 51.7091 30.0733H51.2107V31.7563H51.7461C52.1389 31.7575 52.2242 31.842 52.2242 32.2247C52.2242 35.1263 52.2242 38.0274 52.2251 40.9306C52.2251 40.9989 52.2078 41.0712 52.2427 41.1395H54.2034C54.2126 40.8303 54.2051 40.5397 54.1748 40.2475C54.2366 40.2475 54.2475 40.2843 54.2682 40.3081C54.5638 40.6529 54.9293 40.9055 55.354 41.0841C56.7499 41.6722 59.0259 41.3606 60.0504 39.3963C60.6308 38.2816 60.6972 37.1027 60.4222 35.9063" fill="#FEFEFE"/>
<path fill-rule="evenodd" clip-rule="evenodd" d="M30.8264 35.7741C31.0362 34.7027 32.0696 33.9917 33.0644 34.2313C33.7268 34.3931 34.2724 35.1783 34.1928 35.8709H30.8375C30.804 35.8421 30.8205 35.8072 30.8264 35.7741V35.7741ZM36.1709 37.317C36.2147 37.035 36.2202 36.7708 36.2222 36.5054C36.2241 36.2056 36.2017 35.9096 36.1465 35.6136C35.9308 34.447 35.4009 33.5178 34.386 32.97C33.7173 32.6094 33.0005 32.5275 32.264 32.6069C31.2649 32.7156 30.3982 33.128 29.7232 33.9463C29.0273 34.7897 28.7486 35.8004 28.7289 36.9118C28.6961 38.715 29.6412 40.3105 31.175 40.9781C32.2608 41.4499 33.3699 41.4622 34.4818 41.0779C35.089 40.8702 35.6355 40.5441 36.135 40.0795C35.8571 39.5898 35.5882 39.1172 35.3161 38.639C35.2491 38.6929 35.199 38.7371 35.1477 38.777C34.5816 39.225 33.9586 39.5223 33.2481 39.5622C32.1595 39.6246 31.121 39.0356 30.811 37.7374C30.7795 37.6087 30.7413 37.4775 30.7606 37.317H36.1709Z" fill="#FEFEFE"/>
<path fill-rule="evenodd" clip-rule="evenodd" d="M51.2107 22.4423V3.87158C51.2107 2.4097 52.353 1.25304 53.7977 1.25304H66.8353C68.1119 1.25304 69.1537 2.30713 69.1537 3.59972C69.1537 4.89231 68.1119 5.91262 66.8353 5.91262H56.3513V10.7423H65.3231C66.6001 10.7423 67.6419 11.7964 67.6419 13.089C67.6419 14.3812 66.6001 15.4019 65.3231 15.4019H56.3513V20.4017H67.0034C68.2804 20.4017 69.3218 21.4558 69.3218 22.748C69.3218 24.0405 68.2804 25.0609 67.0034 25.0609H53.7977C52.353 25.0609 51.2107 23.9046 51.2107 22.4423" fill="#FEFEFE"/>
<path fill-rule="evenodd" clip-rule="evenodd" d="M70.5708 16.3569V16.2891C70.5708 11.1356 74.4401 6.89174 79.8635 6.89174C82.5421 6.89174 84.4273 7.63298 85.9152 8.9127C86.246 9.18194 86.709 9.78855 86.709 10.6644C86.709 11.9441 85.6837 12.9546 84.4273 12.9546C83.7657 12.9546 83.2694 12.6854 82.9722 12.4496C82.0795 11.7422 81.1535 11.3041 79.8306 11.3041C77.3174 11.3041 75.5311 13.5608 75.5311 16.2223V16.2891C75.5311 19.0513 77.2842 21.2746 80.0289 21.2746C81.3518 21.2746 82.3771 20.8031 83.3355 20.0284C83.6007 19.8264 84.0965 19.5572 84.6916 19.5572C85.8824 19.5572 86.8083 20.5338 86.8083 21.7462C86.8083 22.4202 86.5104 22.9586 86.0806 23.3629C84.5927 24.7442 82.7079 25.6874 79.7974 25.6874C74.4734 25.6874 70.5708 21.5104 70.5708 16.3569" fill="#FEFEFE"/>
<path fill-rule="evenodd" clip-rule="evenodd" d="M102.411 16.3569V16.2891C102.411 13.6285 100.508 11.3041 97.7043 11.3041C94.8001 11.3041 93.0642 13.5608 93.0642 16.2223V16.2891C93.0642 18.9506 94.967 21.2746 97.7706 21.2746C100.675 21.2746 102.411 19.0179 102.411 16.3569M88.0574 16.3569V16.2891C88.0574 11.1021 92.1966 6.89174 97.7706 6.89174C103.312 6.89174 107.418 11.0348 107.418 16.2223V16.2891C107.418 21.477 103.278 25.6874 97.7043 25.6874C92.1631 25.6874 88.0574 21.5443 88.0574 16.3569" fill="#FEFEFE"/>
<path fill-rule="evenodd" clip-rule="evenodd" d="M122.969 16.3817V16.3146C122.969 13.3246 120.972 11.3428 118.609 11.3428C116.246 11.3428 114.283 13.3246 114.283 16.3146V16.3817C114.283 19.3717 116.246 21.3535 118.609 21.3535C120.972 21.3535 122.969 19.4055 122.969 16.3817V16.3817ZM109.291 3.17956C109.291 1.76858 110.422 0.626526 111.82 0.626526C113.218 0.626526 114.349 1.76858 114.349 3.17956V9.93179C115.581 8.25228 117.278 7.00932 119.907 7.00932C124.067 7.00932 128.027 10.3012 128.027 16.3146V16.3817C128.027 22.3955 124.133 25.6874 119.907 25.6874C117.212 25.6874 115.548 24.4444 114.349 23.0001V23.0334C114.349 24.4111 113.218 25.5531 111.82 25.5531C110.422 25.5531 109.291 24.4111 109.291 23.0001V3.17956Z" fill="#FEFEFE"/>
<path fill-rule="evenodd" clip-rule="evenodd" d="M130.822 9.72426C130.822 8.30375 131.946 7.15399 133.335 7.15399C134.724 7.15399 135.848 8.30375 135.848 9.72426V23.1175C135.848 24.538 134.724 25.6874 133.335 25.6874C131.946 25.6874 130.822 24.538 130.822 23.1175V9.72426ZM130.525 3.02804C130.525 1.53953 131.748 0.626526 133.335 0.626526C134.922 0.626526 136.146 1.53953 136.146 3.02804V3.09521C136.146 4.58372 134.922 5.53073 133.335 5.53073C131.748 5.53073 130.525 4.58372 130.525 3.09521V3.02804Z" fill="#FEFEFE"/>
<path fill-rule="evenodd" clip-rule="evenodd" d="M138.644 16.3569V16.2891C138.644 11.1356 142.513 6.89174 147.936 6.89174C150.615 6.89174 152.5 7.63298 153.988 8.9127C154.319 9.18194 154.782 9.78855 154.782 10.6644C154.782 11.9441 153.756 12.9546 152.5 12.9546C151.838 12.9546 151.342 12.6854 151.045 12.4496C150.152 11.7422 149.226 11.3041 147.903 11.3041C145.39 11.3041 143.604 13.5608 143.604 16.2223V16.2891C143.604 19.0513 145.357 21.2746 148.102 21.2746C149.425 21.2746 150.45 20.8031 151.409 20.0284C151.673 19.8264 152.169 19.5572 152.764 19.5572C153.955 19.5572 154.881 20.5338 154.881 21.7462C154.881 22.4202 154.583 22.9586 154.153 23.3629C152.665 24.7442 150.781 25.6874 147.871 25.6874C142.546 25.6874 138.644 21.5104 138.644 16.3569" fill="#FEFEFE"/>
<mask id="mask1" mask-type="alpha" maskUnits="userSpaceOnUse" x="156" y="0" width="7" height="26">
<path fill-rule="evenodd" clip-rule="evenodd" d="M156.913 0.298141H162.686V25.34H156.913V0.298141Z" fill="white"/>
</mask>
<g mask="url(#mask1)">
<path fill-rule="evenodd" clip-rule="evenodd" d="M157.219 9.38899C157.219 7.96955 158.373 6.82066 159.8 6.82066C161.226 6.82066 162.381 7.96955 162.381 9.38899V22.7721C162.381 24.1915 161.226 25.34 159.8 25.34C158.373 25.34 157.219 24.1915 157.219 22.7721V9.38899ZM156.913 2.69784C156.913 1.21046 158.17 0.298141 159.8 0.298141C161.43 0.298141 162.687 1.21046 162.687 2.69784V2.76496C162.687 4.25234 161.43 5.19863 159.8 5.19863C158.17 5.19863 156.913 4.25234 156.913 2.76496V2.69784Z" fill="#FEFEFE"/>
</g>
<path fill-rule="evenodd" clip-rule="evenodd" d="M44.5303 20.6059L35.9046 3.77139C35.1618 2.27681 33.6342 1.25304 31.8656 1.25304H31.8644H31.8611C30.0946 1.25304 28.5699 2.27681 27.8263 3.77139L21.7543 15.6198C21.0759 14.4027 19.9956 13.4462 18.691 12.9297C20.1471 11.8665 21.0957 10.1314 21.0957 8.17591C21.0957 5.91019 19.8202 3.94562 17.958 2.9737C16.3159 2.10051 14.441 1.60813 12.4556 1.60813H3.37455C1.50701 1.60813 0 3.13216 0 5.01584V22.0884C0 23.9684 1.50701 25.4945 3.37455 25.4945H6.65301H13.1943C15.0865 25.4945 16.8892 25.0996 18.5243 24.3919L19.1476 24.0874C19.1829 24.0704 19.2166 24.0522 19.2491 24.0352C19.8395 25.0224 20.9096 25.6874 22.1387 25.6874C23.5044 25.6874 24.6817 24.8689 25.2118 23.6867C25.4771 23.0628 26.0725 22.6206 26.7783 22.5862H36.9521C37.6584 22.6206 38.2538 23.0628 38.5199 23.6867C39.0484 24.8689 40.2269 25.6874 41.5922 25.6874C43.4573 25.6874 44.9655 24.1592 44.9655 22.2826C44.9655 21.6707 44.8091 21.0983 44.5303 20.6059" fill="#FEFEFE"/>
</svg>
