<?xml version="1.0" encoding="utf-8"?>
<!-- Generator: Adobe Illustrator 22.0.0, SVG Export Plug-In . SVG Version: 6.00 Build 0)  -->
<svg version="1.1" id="Layer_1" xmlns="http://www.w3.org/2000/svg" xmlns:xlink="http://www.w3.org/1999/xlink" x="0px" y="0px"
	 viewBox="0 0 162.7 25.4" style="enable-background:new 0 0 162.7 25.4;" xml:space="preserve">
<style type="text/css">
	.st0{fill:#FEFEFE;}
	.st1{fill:#FFFFFF;filter:url(#Adobe_OpacityMaskFilter);}
	.st2{mask:url(#mask1_1_);}
</style>
<path class="st0" d="M51.2,22.1V3.6c0-1.5,1.1-2.6,2.6-2.6h13c1.3,0,2.3,1.1,2.3,2.3s-1,2.3-2.3,2.3H56.4v4.8h9
	c1.3,0,2.3,1.1,2.3,2.3c0,1.3-1,2.3-2.3,2.3h-9v5H67c1.3,0,2.3,1.1,2.3,2.3c0,1.3-1,2.3-2.3,2.3H53.8C52.4,24.8,51.2,23.6,51.2,22.1
	"/>
<path class="st0" d="M70.6,16.1L70.6,16.1c0-5.2,3.9-9.5,9.3-9.5c2.7,0,4.6,0.7,6.1,2c0.3,0.3,0.8,0.9,0.8,1.8c0,1.3-1,2.3-2.3,2.3
	c-0.7,0-1.2-0.3-1.5-0.5c-0.9-0.7-1.8-1.1-3.1-1.1c-2.5,0-4.3,2.3-4.3,4.9V16c0,2.8,1.8,5,4.5,5c1.3,0,2.3-0.5,3.3-1.2
	c0.3-0.2,0.8-0.5,1.4-0.5c1.2,0,2.1,1,2.1,2.2c0,0.7-0.3,1.2-0.7,1.6c-1.5,1.4-3.4,2.3-6.3,2.3C74.5,25.4,70.6,21.2,70.6,16.1"/>
<path class="st0" d="M102.4,16.1L102.4,16.1c0-2.7-1.9-5.1-4.7-5.1c-2.9,0-4.6,2.3-4.6,4.9V16c0,2.7,1.9,5,4.7,5
	C100.7,21,102.4,18.7,102.4,16.1 M88.1,16.1L88.1,16.1c0-5.3,4.1-9.5,9.7-9.5c5.5,0,9.6,4.1,9.6,9.3V16c0,5.2-4.1,9.4-9.7,9.4
	C92.2,25.4,88.1,21.2,88.1,16.1"/>
<path class="st0" d="M123,16.1L123,16.1c0-3.1-2-5-4.4-5s-4.3,2-4.3,5v0.1c0,3,2,5,4.3,5S123,19.1,123,16.1L123,16.1z M109.3,2.9
	c0-1.4,1.1-2.6,2.5-2.6s2.5,1.1,2.5,2.6v6.8c1.2-1.7,2.9-2.9,5.6-2.9c4.2,0,8.1,3.3,8.1,9.3v0.1c0,6-3.9,9.3-8.1,9.3
	c-2.7,0-4.4-1.2-5.6-2.7v0c0,1.4-1.1,2.5-2.5,2.5s-2.5-1.1-2.5-2.6V2.9z"/>
<path class="st0" d="M130.8,9.4c0-1.4,1.1-2.6,2.5-2.6c1.4,0,2.5,1.1,2.5,2.6v13.4c0,1.4-1.1,2.6-2.5,2.6c-1.4,0-2.5-1.1-2.5-2.6
	V9.4z M130.5,2.7c0-1.5,1.2-2.4,2.8-2.4c1.6,0,2.8,0.9,2.8,2.4v0.1c0,1.5-1.2,2.4-2.8,2.4C131.7,5.2,130.5,4.3,130.5,2.7L130.5,2.7z
	"/>
<path class="st0" d="M138.6,16.1L138.6,16.1c0-5.2,3.9-9.5,9.3-9.5c2.7,0,4.6,0.7,6.1,2c0.3,0.3,0.8,0.9,0.8,1.8
	c0,1.3-1,2.3-2.3,2.3c-0.7,0-1.2-0.3-1.5-0.5c-0.9-0.7-1.8-1.1-3.1-1.1c-2.5,0-4.3,2.3-4.3,4.9V16c0,2.8,1.8,5,4.5,5
	c1.3,0,2.3-0.5,3.3-1.2c0.3-0.2,0.8-0.5,1.4-0.5c1.2,0,2.1,1,2.1,2.2c0,0.7-0.3,1.2-0.7,1.6c-1.5,1.4-3.4,2.3-6.3,2.3
	C142.5,25.4,138.6,21.2,138.6,16.1"/>
<defs>
	<filter id="Adobe_OpacityMaskFilter" filterUnits="userSpaceOnUse" x="156.9" y="0" width="5.8" height="25">
		<feColorMatrix  type="matrix" values="1 0 0 0 0  0 1 0 0 0  0 0 1 0 0  0 0 0 1 0"/>
	</filter>
</defs>
<mask maskUnits="userSpaceOnUse" x="156.9" y="0" width="5.8" height="25" id="mask1_1_">
	<path class="st1" d="M156.9,0h5.8v25h-5.8V0z"/>
</mask>
<g class="st2">
	<path class="st0" d="M157.2,9.1c0-1.4,1.2-2.6,2.6-2.6c1.4,0,2.6,1.1,2.6,2.6v13.4c0,1.4-1.2,2.6-2.6,2.6c-1.4,0-2.6-1.1-2.6-2.6
		V9.1z M156.9,2.4c0-1.5,1.3-2.4,2.9-2.4c1.6,0,2.9,0.9,2.9,2.4v0.1c0,1.5-1.3,2.4-2.9,2.4C158.2,4.9,156.9,4,156.9,2.4L156.9,2.4z"
		/>
</g>
<path class="st0" d="M44.5,20.3L35.9,3.5C35.2,2,33.6,1,31.9,1h0h0c-1.8,0-3.3,1-4,2.5l-6.1,11.8c-0.7-1.2-1.8-2.2-3.1-2.7
	c1.5-1.1,2.4-2.8,2.4-4.8c0-2.3-1.3-4.2-3.1-5.2c-1.6-0.9-3.5-1.4-5.5-1.4H3.4C1.5,1.3,0,2.8,0,4.7v17.1c0,1.9,1.5,3.4,3.4,3.4h3.3
	h6.5c1.9,0,3.7-0.4,5.3-1.1l0.6-0.3c0,0,0.1,0,0.1-0.1c0.6,1,1.7,1.7,2.9,1.7c1.4,0,2.5-0.8,3.1-2c0.3-0.6,0.9-1.1,1.6-1.1H37
	c0.7,0,1.3,0.5,1.6,1.1c0.5,1.2,1.7,2,3.1,2c1.9,0,3.4-1.5,3.4-3.4C45,21.4,44.8,20.8,44.5,20.3"/>
</svg>
